<svg width="96" height="96" viewBox="0 0 96 96" fill="none" xmlns="http://www.w3.org/2000/svg">
<rect width="96" height="96" rx="4" fill="#EAF7E9"/>
<path opacity="0.2" d="M32.513 57.1867C30.2797 53.4187 29.4985 48.9651 30.3161 44.6619C31.1337 40.3588 33.4939 36.5021 36.9535 33.8158C40.4132 31.1295 44.7344 29.7984 49.106 30.0723C53.4775 30.3463 57.5987 32.2065 60.696 35.3037C63.7932 38.4009 65.6534 42.5222 65.9273 46.8937C66.2013 51.2653 64.8702 55.5865 62.1839 59.0461C59.4976 62.5058 55.6409 64.866 51.3377 65.6836C47.0346 66.5012 42.581 65.72 38.813 63.4867L32.588 65.2492C32.333 65.3238 32.0626 65.3284 31.8051 65.2625C31.5477 65.1967 31.3127 65.0628 31.1248 64.8749C30.9369 64.687 30.803 64.452 30.7372 64.1946C30.6713 63.9371 30.6759 63.6667 30.7505 63.4117L32.513 57.1867Z" fill="#2DB324"/>
<path d="M32.513 57.1867C30.2797 53.4187 29.4985 48.9651 30.3161 44.6619C31.1337 40.3588 33.4939 36.5021 36.9535 33.8158C40.4132 31.1295 44.7344 29.7984 49.106 30.0723C53.4775 30.3463 57.5987 32.2065 60.696 35.3037C63.7932 38.4009 65.6534 42.5222 65.9273 46.8937C66.2013 51.2653 64.8702 55.5865 62.1839 59.0461C59.4976 62.5058 55.6409 64.866 51.3377 65.6836C47.0346 66.5012 42.581 65.72 38.813 63.4867L32.588 65.2492C32.333 65.3238 32.0626 65.3284 31.8051 65.2625C31.5477 65.1967 31.3127 65.0628 31.1248 64.8749C30.9369 64.687 30.803 64.452 30.7372 64.1946C30.6713 63.9371 30.6759 63.6667 30.7505 63.4117L32.513 57.1867Z" stroke="#2DB324" stroke-width="3" stroke-linecap="round" stroke-linejoin="round"/>
<path d="M48 50.25C49.2426 50.25 50.25 49.2426 50.25 48C50.25 46.7574 49.2426 45.75 48 45.75C46.7574 45.75 45.75 46.7574 45.75 48C45.75 49.2426 46.7574 50.25 48 50.25Z" fill="#2DB324"/>
<path d="M39 50.25C40.2426 50.25 41.25 49.2426 41.25 48C41.25 46.7574 40.2426 45.75 39 45.75C37.7574 45.75 36.75 46.7574 36.75 48C36.75 49.2426 37.7574 50.25 39 50.25Z" fill="#2DB324"/>
<path d="M57 50.25C58.2426 50.25 59.25 49.2426 59.25 48C59.25 46.7574 58.2426 45.75 57 45.75C55.7574 45.75 54.75 46.7574 54.75 48C54.75 49.2426 55.7574 50.25 57 50.25Z" fill="#2DB324"/>
</svg>
