<svg width="96" height="96" viewBox="0 0 96 96" fill="none" xmlns="http://www.w3.org/2000/svg">
<rect width="96" height="96" rx="4" fill="#EAF6FE"/>
<path opacity="0.2" d="M41.3437 47.3996C42.8873 50.5871 45.4648 53.158 48.6562 54.6933C48.8917 54.8048 49.1521 54.853 49.4118 54.8333C49.6715 54.8136 49.9216 54.7266 50.1375 54.5808L54.825 51.4496C55.0321 51.3091 55.2714 51.2234 55.5206 51.2004C55.7698 51.1775 56.0207 51.2181 56.25 51.3183L65.025 55.0871C65.3249 55.2119 65.5755 55.4318 65.7381 55.7131C65.9007 55.9943 65.9664 56.3211 65.925 56.6433C65.6469 58.8141 64.5873 60.8091 62.9446 62.2551C61.3018 63.7012 59.1885 64.4991 57 64.4996C50.237 64.4996 43.751 61.813 38.9688 57.0308C34.1866 52.2486 31.5 45.7626 31.5 38.9996C31.5005 36.8111 32.2984 34.6977 33.7444 33.055C35.1904 31.4123 37.1855 30.3527 39.3562 30.0746C39.6784 30.0332 40.0053 30.0989 40.2865 30.2615C40.5677 30.4241 40.7877 30.6747 40.9125 30.9746L44.6812 39.7683C44.7793 39.994 44.8203 40.2403 44.8006 40.4855C44.781 40.7307 44.7014 40.9674 44.5687 41.1746L41.4375 45.9371C41.2981 46.1525 41.2163 46.4 41.1999 46.6561C41.1834 46.9121 41.233 47.1681 41.3437 47.3996Z" fill="#2DA5F3"/>
<path d="M41.3437 47.3996C42.8873 50.5871 45.4648 53.158 48.6562 54.6933C48.8917 54.8048 49.1521 54.853 49.4118 54.8333C49.6715 54.8136 49.9216 54.7266 50.1375 54.5808L54.825 51.4496C55.0321 51.3091 55.2714 51.2234 55.5206 51.2004C55.7698 51.1775 56.0207 51.218 56.25 51.3183L65.025 55.0871C65.3249 55.2119 65.5755 55.4318 65.7381 55.713C65.9007 55.9943 65.9664 56.3211 65.925 56.6433C65.6469 58.8141 64.5873 60.8091 62.9446 62.2551C61.3018 63.7012 59.1885 64.4991 57 64.4996C50.237 64.4996 43.751 61.813 38.9688 57.0308C34.1866 52.2486 31.5 45.7626 31.5 38.9996C31.5005 36.8111 32.2984 34.6977 33.7444 33.055C35.1904 31.4123 37.1855 30.3527 39.3562 30.0746C39.6784 30.0332 40.0053 30.0989 40.2865 30.2615C40.5677 30.4241 40.7877 30.6747 40.9125 30.9746L44.6812 39.7683C44.7793 39.994 44.8203 40.2403 44.8006 40.4855C44.781 40.7307 44.7014 40.9674 44.5687 41.1746L41.4375 45.9371C41.2981 46.1525 41.2163 46.4 41.1999 46.6561C41.1834 46.9121 41.233 47.1681 41.3437 47.3996V47.3996Z" stroke="#2DA5F3" stroke-width="3" stroke-linecap="round" stroke-linejoin="round"/>
<path d="M53.8867 31.5C56.431 32.1828 58.7509 33.5228 60.6136 35.3856C62.4764 37.2483 63.8164 39.5682 64.4992 42.1125" fill="#2DA5F3"/>
<path d="M53.8867 31.5C56.431 32.1828 58.7509 33.5228 60.6136 35.3856C62.4764 37.2483 63.8164 39.5682 64.4992 42.1125" stroke="#2DA5F3" stroke-width="3" stroke-linecap="round" stroke-linejoin="round"/>
<path d="M52.332 37.293C53.8623 37.6994 55.2579 38.5031 56.3774 39.6226C57.4969 40.7421 58.3006 42.1377 58.707 43.668" fill="#2DA5F3"/>
<path d="M52.332 37.293C53.8623 37.6994 55.2579 38.5031 56.3774 39.6226C57.4969 40.7421 58.3006 42.1377 58.707 43.668" stroke="#2DA5F3" stroke-width="3" stroke-linecap="round" stroke-linejoin="round"/>
</svg>
