<svg width="56" height="56" viewBox="0 0 56 56" fill="none" xmlns="http://www.w3.org/2000/svg">
<rect width="56" height="56" rx="2" fill="white"/>
<path opacity="0.2" d="M21.2374 25.9258L17.3124 30.6258C17.2136 30.7411 17.1438 30.8785 17.109 31.0264C17.0742 31.1743 17.0754 31.3284 17.1124 31.4758L18.6499 38.4383C18.687 38.6038 18.7656 38.7571 18.8783 38.8839C18.991 39.0107 19.1341 39.1067 19.2941 39.1629C19.4541 39.2192 19.6257 39.2338 19.793 39.2054C19.9602 39.1771 20.1174 39.1067 20.2499 39.0008L23.9999 36.0008C21.7999 32.1758 21.0874 28.8133 21.2374 25.9258Z" fill="#303639"/>
<path opacity="0.2" d="M34.6875 25.8379L38.6125 30.5504C38.7114 30.6658 38.7812 30.8031 38.816 30.9511C38.8508 31.099 38.8496 31.253 38.8125 31.4004L37.275 38.3504C37.2396 38.5169 37.1622 38.6717 37.0503 38.8C36.9383 38.9282 36.7954 39.0258 36.6351 39.0834C36.4749 39.141 36.3026 39.1567 36.1346 39.129C35.9666 39.1014 35.8084 39.0313 35.675 38.9254L31.925 35.9254C34.125 32.0879 34.8375 28.7254 34.6875 25.8379Z" fill="#303639"/>
<path d="M30 40H26" stroke="#303639" stroke-width="2" stroke-linecap="round" stroke-linejoin="round"/>
<path d="M27.3751 14.4747C25.0001 16.3747 17.0626 23.9747 24.0001 35.9997H32.0001C38.8001 23.9747 30.9751 16.3872 28.6251 14.4747C28.4497 14.3283 28.2285 14.248 28.0001 14.248C27.7716 14.248 27.5504 14.3283 27.3751 14.4747Z" stroke="#303639" stroke-width="2" stroke-linecap="round" stroke-linejoin="round"/>
<path d="M21.2374 25.9258L17.3124 30.6258C17.2136 30.7411 17.1438 30.8785 17.109 31.0264C17.0742 31.1743 17.0754 31.3284 17.1124 31.4758L18.6499 38.4383C18.687 38.6038 18.7656 38.7571 18.8783 38.8839C18.991 39.0107 19.1341 39.1067 19.2941 39.1629C19.4541 39.2192 19.6257 39.2338 19.793 39.2054C19.9602 39.1771 20.1174 39.1067 20.2499 39.0008L23.9999 36.0008" stroke="#303639" stroke-width="2" stroke-linecap="round" stroke-linejoin="round"/>
<path d="M34.6875 25.8242L38.6875 30.6242C38.7864 30.7396 38.8561 30.877 38.8909 31.0249C38.9258 31.1728 38.9246 31.3269 38.8875 31.4742L37.35 38.4367C37.3129 38.6022 37.2343 38.7556 37.1216 38.8823C37.009 39.0091 36.8659 39.1051 36.7059 39.1614C36.5459 39.2176 36.3742 39.2323 36.207 39.2039C36.0398 39.1755 35.8825 39.1051 35.75 38.9992L32 35.9992" stroke="#303639" stroke-width="2" stroke-linecap="round" stroke-linejoin="round"/>
<path d="M28 25.5C28.8284 25.5 29.5 24.8284 29.5 24C29.5 23.1716 28.8284 22.5 28 22.5C27.1716 22.5 26.5 23.1716 26.5 24C26.5 24.8284 27.1716 25.5 28 25.5Z" fill="#303639"/>
</svg>
