<svg width="20" height="20" viewBox="0 0 20 20" fill="none" xmlns="http://www.w3.org/2000/svg">
<g clip-path="url(#clip0_2791_11586)">
<path d="M18.2258 0.7547H1.77422C1.21072 0.7547 0.753906 1.21151 0.753906 1.77501V18.2266C0.753906 18.7901 1.21072 19.2469 1.77422 19.2469H18.2258C18.7893 19.2469 19.2461 18.7901 19.2461 18.2266V1.77501C19.2461 1.21151 18.7893 0.7547 18.2258 0.7547Z" fill="#3D5A98"/>
<path d="M13.5133 19.2453V12.0844H15.9164L16.2758 9.29378H13.5133V7.51253C13.5133 6.70472 13.7383 6.15316 14.8961 6.15316H16.3742V3.65316C15.6585 3.57856 14.9392 3.54309 14.2195 3.54691C12.0914 3.54691 10.6258 4.84378 10.6258 7.23597V9.29378H8.22266V12.0844H10.6258V19.2453H13.5133Z" fill="white"/>
</g>
<defs>
<clipPath id="clip0_2791_11586">
<rect width="20" height="20" fill="white"/>
</clipPath>
</defs>
</svg>
