<svg width="204" height="60" viewBox="0 0 204 60" fill="none" xmlns="http://www.w3.org/2000/svg">
<g clip-path="url(#clip0_2657_5503)">
<path d="M75.0689 16.9231V16.5384C75.0637 16.4493 75.0833 16.3605 75.1253 16.2818C75.1674 16.2031 75.2304 16.1375 75.3074 16.0923C75.4741 15.9936 75.6606 15.9332 75.8536 15.9154C76.0169 15.8942 76.1812 15.8814 76.3459 15.8769H76.8228L77.6612 15.8308H78.4305L80.1305 15.7538C80.592 15.7538 80.9612 15.7 81.2305 15.6692C81.5055 15.6686 81.7802 15.6531 82.0536 15.6231L82.6459 15.5615H90.1689C90.3228 15.5615 90.4074 15.6154 90.4228 15.7154V15.8538V15.9231C90.4228 16.1846 90.4228 16.4692 90.4228 16.7923C90.4228 17.1154 90.4228 17.4846 90.4689 17.9077C90.5151 18.3308 90.4689 18.9384 90.4689 19.4C90.4689 19.8615 90.4689 20.2846 90.4689 20.6692V20.8923C90.4564 21.0228 90.4564 21.1541 90.4689 21.2846V22.5154C90.4786 22.6588 90.4786 22.8027 90.4689 22.9461V25.1846C90.4689 25.3154 90.4689 25.4923 90.4689 25.7077C90.4689 25.9231 90.4689 26.1846 90.4689 26.4769C90.4808 26.5663 90.4808 26.6568 90.4689 26.7461C90.4647 26.8102 90.4647 26.8744 90.4689 26.9384C90.4651 27.0102 90.4651 27.0821 90.4689 27.1538C90.4689 27.184 90.4751 27.2139 90.487 27.2417C90.4989 27.2695 90.5163 27.2945 90.5382 27.3154C90.5382 27.6384 90.2305 27.8077 89.6074 27.8384L89.3997 27.8769H89.192H88.8843H88.4382H87.9843H87.3228C87.1689 27.8769 87.0843 27.8 87.0689 27.6307C87.0536 27.4615 87.0689 27.2923 87.0689 27.1308V25.7692V25.1307C87.0131 24.9071 86.9898 24.6765 86.9997 24.4461C86.9805 24.2723 86.9805 24.0969 86.9997 23.9231L86.9536 23.8307C86.9446 23.8085 86.9446 23.7837 86.9536 23.7615C86.9238 23.7727 86.891 23.7727 86.8612 23.7615C86.8238 23.7492 86.7833 23.7492 86.7459 23.7615L86.1997 23.7231L85.1766 23.6615C84.792 23.6615 84.4074 23.6615 84.1228 23.6615H84.0766C84.0386 23.6614 84.001 23.6696 83.9664 23.6856C83.9319 23.7015 83.9013 23.7248 83.8766 23.7538V26.3538C83.8766 26.6692 83.7689 26.8692 83.5536 26.9461C83.1258 27.0311 82.689 27.0621 82.2536 27.0384H80.4074C80.1766 26.9769 80.0689 26.8615 80.0689 26.6923C80.0731 26.636 80.0731 26.5794 80.0689 26.5231C80.0689 26.4692 80.0689 26.4154 80.0689 26.3538L80.0228 25.4154V24.9846C80.03 24.8319 80.0145 24.6789 79.9766 24.5308L79.9074 24.0923V23.8C79.9074 23.5538 79.9074 23.4 79.8151 23.3461L79.7459 23.2538C79.7048 23.2001 79.6485 23.1599 79.5843 23.1384C78.9305 23.1384 78.3843 23.1384 77.9305 23.1384H76.8766C76.5382 23.1384 76.2459 23.1384 76.0074 23.0692C75.7977 23.0463 75.5913 22.9998 75.392 22.9307C75.392 22.8 75.392 22.6307 75.392 22.4461C75.392 22.2615 75.392 22.0308 75.392 21.7692C75.3974 21.6719 75.3974 21.5743 75.392 21.4769C75.4001 21.4234 75.4001 21.3689 75.392 21.3154V21.0846C75.3783 21.0395 75.3783 20.9913 75.392 20.9461C75.402 20.9188 75.402 20.8888 75.392 20.8615V20.7923C75.392 20.7923 75.392 20.7923 75.392 20.7231C75.3895 20.6877 75.3801 20.6532 75.3643 20.6216C75.3484 20.5899 75.3265 20.5616 75.2997 20.5384L75.5305 18.7384C75.5193 18.7087 75.5193 18.6759 75.5305 18.6461L75.4612 18.4384L75.0689 16.9231Z" fill="#6B8E4D"/>
<path d="M74.5463 35.4614C74.5458 34.8805 74.5792 34.3 74.6463 33.723C74.7155 33.1307 74.8002 32.5768 74.9078 32.0614C74.9983 31.6816 75.1299 31.3128 75.3002 30.9614C75.4588 30.6468 75.6754 30.365 75.9386 30.1307C76.276 29.8488 76.6334 29.5918 77.0078 29.3614V29.1076H77.3694C77.3653 29.0951 77.3653 29.0816 77.3694 29.0691C77.3694 29.0691 77.3694 29.0691 77.3694 29.0153L77.7848 28.8307C79.0164 28.1789 80.4007 27.8707 81.7925 27.9384C83.0745 27.9644 84.3341 28.28 85.4771 28.8614C86.5603 29.4983 87.4734 30.3877 88.1386 31.4537C88.317 31.7491 88.4469 32.0711 88.5232 32.4076C88.5848 32.7153 88.6463 33.0076 88.7078 33.2999C88.7694 33.5922 88.7078 34.1307 88.7078 34.5999C88.7078 35.0691 88.7078 35.5384 88.7078 36.0153V36.1076C88.7183 36.2227 88.7183 36.3386 88.7078 36.4537C88.7155 36.6049 88.7155 36.7564 88.7078 36.9076C88.6442 38.0105 88.2199 39.0618 87.5002 39.8999C87.0069 40.4448 86.4274 40.9048 85.7848 41.2614C85.1002 41.6506 84.365 41.9432 83.6002 42.1307C82.8189 42.3288 82.0133 42.4143 81.2078 42.3845C80.6423 42.3719 80.0809 42.2839 79.5386 42.123L78.0002 41.6307C77.4825 41.4694 77.0016 41.2081 76.5848 40.8614C76.1562 40.5289 75.7846 40.1288 75.4848 39.6768L75.1694 39.1768C75.1694 39.1768 75.1694 39.1384 75.0925 39.0614C75.0772 39.0465 75.0652 39.0285 75.0572 39.0086C75.0493 38.9888 75.0456 38.9674 75.0463 38.9461C74.9864 38.819 74.9625 38.678 74.9771 38.5384V38.3999C74.8694 38.0461 74.754 37.6922 74.6232 37.3307C74.4993 37.0301 74.4993 36.6928 74.6232 36.3922C74.6566 36.3082 74.6566 36.2147 74.6232 36.1307C74.6165 36.0745 74.6165 36.0176 74.6232 35.9614L74.5463 35.4614ZM77.2617 35.4153C77.2547 35.51 77.2547 35.6052 77.2617 35.6999C77.2617 35.7999 77.2617 35.8538 77.2617 35.8691L78.1002 36.2538L78.2463 36.2999C78.305 36.3079 78.3645 36.3079 78.4232 36.2999L78.6925 36.4614H79.2309C79.3603 36.5363 79.5004 36.5908 79.6463 36.623C79.7925 36.623 80.0463 36.6999 80.4155 36.7537H80.8002H81.2078L84.2848 36.3461C85.0078 36.2537 85.4078 36.0461 85.4694 35.7076C85.4807 35.5977 85.512 35.4908 85.5617 35.3922C85.5967 35.3194 85.6201 35.2415 85.6309 35.1614C85.6309 35.1153 85.6309 35.0384 85.6925 34.9307C85.7061 34.8752 85.7055 34.8172 85.6907 34.7621C85.6759 34.707 85.6474 34.6565 85.6078 34.6153C85.2708 34.4238 84.9082 34.2813 84.5309 34.1922C84.1219 34.0824 83.7005 34.0255 83.2771 34.023H81.7925C81.4002 34.023 81.0232 34.023 80.554 34.0691C80.189 34.0917 79.8263 34.1431 79.4694 34.223L78.9925 34.3614H78.7848C78.533 34.3478 78.2816 34.3944 78.0515 34.4974C77.8214 34.6004 77.6192 34.7569 77.4617 34.9537C77.3386 35.023 77.2617 35.1537 77.2617 35.3845V35.4153Z" fill="#6B8E4D"/>
<path d="M74.9306 47.0384C74.9238 46.4454 74.9469 45.8523 74.9998 45.2615C75.0362 44.8825 75.1135 44.5085 75.2306 44.1461C75.2265 44.1069 75.2356 44.0674 75.2565 44.034C75.2774 44.0005 75.3089 43.975 75.346 43.9615C75.4886 43.8977 75.6436 43.8662 75.7998 43.8692L79.646 43.6231L80.8306 43.5538L82.0306 43.5154H84.2306H85.1845L86.3229 43.5615L87.1691 43.6077H87.6921C87.7482 43.5986 87.8053 43.5986 87.8614 43.6077C87.9075 43.6077 87.9306 43.6385 87.9306 43.7C87.9325 43.8408 87.964 43.9797 88.0229 44.1077V44.2C88.0178 44.246 88.0178 44.2924 88.0229 44.3385V44.4615C88.0324 44.502 88.0324 44.5441 88.0229 44.5846V48.2538C88.0313 48.3228 88.0313 48.3926 88.0229 48.4615V49.1692C88.0229 49.3538 88.0229 49.4846 87.9768 49.5692C87.9675 49.612 87.9479 49.6519 87.9198 49.6854C87.8916 49.7189 87.8558 49.745 87.8152 49.7615L87.1768 49.9461H85.6383C86.4062 50.4692 87.0582 51.1448 87.5537 51.9308C87.8159 52.272 87.995 52.6697 88.0768 53.0923C88.1383 53.4692 88.1998 53.7923 88.2537 54.0461C88.2795 54.1235 88.2859 54.206 88.2725 54.2865C88.2591 54.3669 88.2263 54.4429 88.1768 54.5077C88.1215 54.5701 88.0523 54.6187 87.9748 54.6494C87.8973 54.6802 87.8136 54.6922 87.7306 54.6846C85.8306 54.6846 84.5075 54.6384 83.7537 54.5538C82.9998 54.4692 82.6306 54.2923 82.646 54.0461C82.6665 53.7509 82.7102 53.4576 82.7768 53.1692C82.8456 52.8118 82.8791 52.4486 82.8768 52.0846C82.8916 51.5308 82.718 50.9884 82.3844 50.5461C82.2465 50.3526 82.0642 50.195 81.8527 50.0865C81.6412 49.9781 81.4067 49.9221 81.1691 49.9231H75.4614C75.3921 49.9231 75.346 49.9231 75.3306 49.8769C75.2931 49.8646 75.2527 49.8646 75.2152 49.8769C75.188 49.8731 75.1633 49.859 75.1462 49.8376C75.129 49.8161 75.1207 49.7889 75.1229 49.7615C75.1229 49.7615 75.1229 49.7615 75.0768 49.6923L75.0306 49.5769C75.0306 48.982 75.0075 48.4205 74.9614 47.8923L74.9306 47.0384Z" fill="#6B8E4D"/>
<path d="M102.846 53.7462C102.104 53.7498 101.366 53.6462 100.654 53.4385C99.9657 53.2367 99.3083 52.9416 98.7001 52.5616C98.0918 52.1787 97.5358 51.7185 97.0462 51.1923C96.5514 50.6593 96.1274 50.0646 95.7847 49.4231C95.0553 48.0662 94.6772 46.5482 94.6847 45.0077C94.6828 44.2296 94.7784 43.4543 94.9693 42.7C95.153 41.9714 95.4269 41.2685 95.7847 40.6077C96.1259 39.9652 96.55 39.3704 97.0462 38.8385C97.5338 38.3102 98.09 37.8497 98.7001 37.4693C99.3083 37.0892 99.9657 36.7941 100.654 36.5923C102.088 36.172 103.612 36.172 105.046 36.5923C107.139 37.2334 108.892 38.6771 109.923 40.6077C110.283 41.2682 110.56 41.9711 110.746 42.7C111.136 44.2294 111.136 45.8322 110.746 47.3616C110.559 48.0901 110.282 48.7928 109.923 49.4539C109.236 50.7317 108.232 51.8122 107.008 52.5923C106.396 52.971 105.736 53.2659 105.046 53.4692C104.33 53.6673 103.589 53.7606 102.846 53.7462ZM102.846 50.2539C103.464 50.2619 104.075 50.1166 104.623 49.8308C105.159 49.5558 105.631 49.1704 106.008 48.7C106.409 48.2016 106.714 47.633 106.908 47.0231C107.123 46.3733 107.23 45.6923 107.223 45.0077C107.228 44.3151 107.119 43.6265 106.9 42.9692C106.702 42.3596 106.395 41.7912 105.992 41.2923C105.616 40.8193 105.145 40.4313 104.608 40.1539C104.061 39.8809 103.458 39.7389 102.846 39.7389C102.236 39.7389 101.632 39.8809 101.085 40.1539C100.55 40.4314 100.081 40.8195 99.7078 41.2923C99.3078 41.7928 99.0005 42.3607 98.8001 42.9692C98.5758 43.6253 98.4639 44.3144 98.4693 45.0077C98.464 45.6934 98.5759 46.375 98.8001 47.0231C99.0027 47.6307 99.3099 48.1982 99.7078 48.7C100.083 49.1685 100.552 49.5536 101.085 49.8308C101.628 50.1156 102.233 50.261 102.846 50.2539Z" fill="#644426"/>
<path d="M120.046 41.9076H125.508V50.3691H126.923V53.4461H122.031V52.4692C121.629 52.8293 121.162 53.1087 120.654 53.2922C120.065 53.4948 119.446 53.5937 118.823 53.5845C118.208 53.5885 117.597 53.4871 117.016 53.2845C116.467 53.0906 115.966 52.781 115.546 52.3768C115.107 51.9427 114.768 51.4176 114.554 50.8384C114.296 50.1503 114.173 49.419 114.193 48.6845V44.9461H112.654V41.8691H117.754V48.6614C117.729 48.9763 117.768 49.2931 117.87 49.5921C117.972 49.8912 118.134 50.1661 118.346 50.3999C118.552 50.5917 118.795 50.7408 119.059 50.8385C119.323 50.9362 119.604 50.9806 119.885 50.9691C120.324 50.9709 120.751 50.8275 121.1 50.5615C121.459 50.2722 121.727 49.8846 121.869 49.4461V44.923H120.016L120.046 41.9076Z" fill="#644426"/>
<path d="M132.946 41.9076H135.254V44.823H132.946V49.7076C132.939 49.9374 132.959 50.1673 133.007 50.3922C133.044 50.5432 133.112 50.6848 133.207 50.8076C133.283 50.908 133.388 50.9831 133.507 51.023C133.642 51.0617 133.782 51.0799 133.923 51.0768C134.182 51.0811 134.44 51.0526 134.692 50.9922C134.907 50.9383 135.123 50.8691 135.338 50.7999L135.815 52.946C135.423 53.1923 134.998 53.3838 134.554 53.5153C134.016 53.6665 133.459 53.739 132.9 53.7306C132.456 53.7297 132.015 53.6489 131.6 53.4922C131.192 53.3359 130.822 53.0947 130.515 52.7845C130.178 52.4487 129.915 52.0449 129.746 51.5999C129.551 51.0683 129.459 50.5043 129.477 49.9383V44.823H127.815V41.9076H129.484V39.146L132.946 37.4922V41.9076Z" fill="#644426"/>
<path d="M144.331 36.1538H149.385V50.4307H151.631V53.5077H145.954V53.0615C145.559 53.2676 145.144 53.4326 144.715 53.5538C144.303 53.6739 143.875 53.7335 143.446 53.7307C142.61 53.7416 141.78 53.582 141.008 53.2615C140.294 52.9595 139.648 52.5174 139.108 51.9615C138.571 51.4048 138.148 50.749 137.861 50.0307C137.271 48.5037 137.271 46.8116 137.861 45.2846C138.144 44.5726 138.562 43.9222 139.092 43.3692C139.625 42.8207 140.263 42.3863 140.969 42.0923C141.734 41.7726 142.556 41.6129 143.385 41.623C143.842 41.6202 144.298 41.6666 144.746 41.7615C145.164 41.8517 145.571 41.9858 145.961 42.1615V39.2307H144.338L144.331 36.1538ZM143.631 50.6384C144.1 50.6288 144.559 50.4962 144.961 50.2538C145.358 50.0215 145.697 49.7034 145.954 49.323V45.923C145.699 45.5359 145.35 45.2206 144.938 45.0077C144.538 44.787 144.087 44.6755 143.631 44.6846C143.259 44.6757 142.89 44.7438 142.546 44.8846C142.214 45.028 141.912 45.2314 141.654 45.4846C141.396 45.7577 141.19 46.0757 141.046 46.423C140.749 47.2193 140.749 48.096 141.046 48.8923C141.187 49.241 141.393 49.5596 141.654 49.8307C141.91 50.0817 142.213 50.2803 142.546 50.4153C142.895 50.536 143.261 50.5984 143.631 50.6V50.6384Z" fill="#644426"/>
<path d="M153.016 47.6309C153.011 46.8216 153.166 46.0194 153.469 45.2693C153.765 44.5461 154.2 43.8883 154.751 43.3339C155.301 42.7794 155.956 42.3392 156.677 42.0385C158.267 41.4025 160.041 41.4025 161.631 42.0385C162.359 42.3426 163.02 42.7869 163.577 43.3462C164.119 43.8987 164.548 44.552 164.839 45.2693C165.142 46.0194 165.297 46.8216 165.292 47.6309C165.298 48.4413 165.149 49.2453 164.854 50.0001C164.566 50.7217 164.14 51.3801 163.6 51.9385C163.05 52.5019 162.39 52.9468 161.662 53.2462C160.047 53.8925 158.246 53.8925 156.631 53.2462C155.908 52.9543 155.253 52.5169 154.707 51.9611C154.16 51.4053 153.734 50.743 153.454 50.0155C153.159 49.2553 153.01 48.4463 153.016 47.6309ZM156.346 47.6309C156.339 48.0468 156.415 48.4599 156.569 48.8462C156.706 49.1993 156.913 49.5211 157.177 49.7924C157.429 50.0592 157.732 50.2713 158.069 50.4155C158.41 50.568 158.781 50.6442 159.154 50.6385C159.523 50.6443 159.889 50.5734 160.23 50.4304C160.57 50.2874 160.877 50.0754 161.131 49.8078C161.382 49.5282 161.581 49.2049 161.716 48.8539C161.858 48.4621 161.928 48.0477 161.923 47.6309C161.929 47.2064 161.858 46.7844 161.716 46.3847C161.583 46.035 161.384 45.7138 161.131 45.4386C160.883 45.1788 160.581 44.9766 160.246 44.8462C159.9 44.7048 159.528 44.6367 159.154 44.6462C158.782 44.6367 158.413 44.7048 158.069 44.8462C157.732 44.9765 157.428 45.1786 157.177 45.4386C156.911 45.7086 156.704 46.0308 156.569 46.3847C156.414 46.7814 156.338 47.2048 156.346 47.6309Z" fill="#644426"/>
<path d="M166.923 47.6309C166.919 46.8216 167.073 46.0194 167.377 45.2693C167.673 44.5461 168.108 43.8883 168.659 43.3339C169.209 42.7794 169.864 42.3392 170.585 42.0385C172.175 41.4025 173.949 41.4025 175.539 42.0385C176.267 42.3426 176.928 42.7869 177.485 43.3462C178.027 43.8987 178.455 44.552 178.746 45.2693C179.05 46.0194 179.204 46.8216 179.2 47.6309C179.206 48.4413 179.057 49.2453 178.762 50.0001C178.474 50.7217 178.048 51.3801 177.508 51.9385C176.957 52.5019 176.298 52.9468 175.569 53.2462C173.955 53.8925 172.153 53.8925 170.539 53.2462C169.816 52.9543 169.161 52.5169 168.614 51.9611C168.068 51.4053 167.641 50.743 167.362 50.0155C167.067 49.2553 166.918 48.4463 166.923 47.6309ZM170.254 47.6309C170.251 48.0464 170.327 48.4589 170.477 48.8462C170.614 49.1993 170.821 49.5211 171.085 49.7924C171.336 50.0592 171.64 50.2713 171.977 50.4155C172.318 50.5673 172.688 50.6434 173.062 50.6385C173.437 50.6439 173.809 50.5705 174.154 50.4232C174.487 50.2788 174.788 50.0696 175.039 49.8078C175.293 49.5304 175.492 49.2065 175.623 48.8539C175.766 48.4621 175.836 48.0477 175.831 47.6309C175.837 47.2064 175.766 46.7844 175.623 46.3847C175.493 46.0335 175.295 45.7118 175.039 45.4386C174.791 45.1788 174.489 44.9766 174.154 44.8462C173.453 44.581 172.678 44.581 171.977 44.8462C171.64 44.9765 171.336 45.1786 171.085 45.4386C170.819 45.7086 170.612 46.0308 170.477 46.3847C170.312 46.7799 170.223 47.2027 170.216 47.6309H170.254Z" fill="#644426"/>
<path d="M191.315 46.1076H188.185V44.9153C187.904 44.9146 187.624 44.9352 187.346 44.9768C187.116 45.0086 186.892 45.0788 186.685 45.1845C186.498 45.2804 186.335 45.4171 186.208 45.5845C186.069 45.7711 185.974 45.9868 185.931 46.2153V50.3922H188.285V53.4691H180.769V50.3922H182.492V44.9614H180.769V41.8845H185.9V42.6999C186.233 42.4376 186.608 42.2323 187.008 42.0922C187.439 41.9499 187.892 41.8798 188.346 41.8845H189.885H191.331L191.315 46.1076Z" fill="#644426"/>
<path d="M60.9925 2.50777C46.154 14.9078 33.5232 29.5155 19.8694 43.1232C15.3232 47.6616 10.8309 52.2539 6.02324 56.5309C5.84307 56.7014 5.73643 56.9354 5.72595 57.1833C5.71547 57.4311 5.80197 57.6733 5.96709 57.8585C6.13222 58.0436 6.36298 58.1571 6.61042 58.175C6.85787 58.1928 7.10251 58.1135 7.29247 57.9539C15.9771 48.4385 25.3155 39.5462 34.554 30.5693C39.2386 26.1693 43.954 21.8078 48.4002 17.1462C52.8463 12.4847 57.254 7.83854 61.4079 2.91547C61.4351 2.88895 61.4567 2.85725 61.4715 2.82224C61.4862 2.78723 61.4938 2.74962 61.4938 2.71162C61.4938 2.67362 61.4862 2.63601 61.4715 2.601C61.4567 2.56599 61.4351 2.53429 61.4079 2.50777C61.3571 2.46236 61.2914 2.43726 61.2232 2.43726C61.1551 2.43726 61.0894 2.46236 61.0386 2.50777H60.9925Z" fill="#183319"/>
<path d="M66.1079 38.9384L60.3232 45.2231C57.0079 40.5538 53.4002 35.2231 49.9771 30.8769C49.7232 30.5 49.3079 30.2538 48.9002 30.5307C47.2499 31.6124 45.6674 32.7941 44.1617 34.0692C43.8386 34.3384 43.5232 34.6231 43.2079 34.9L37.1771 29.7077C37.1478 29.6784 37.113 29.6551 37.0747 29.6393C37.0365 29.6234 36.9954 29.6152 36.954 29.6152C36.9126 29.6152 36.8716 29.6234 36.8333 29.6393C36.795 29.6551 36.7602 29.6784 36.7309 29.7077C36.6823 29.7689 36.6558 29.8448 36.6558 29.9231C36.6558 30.0013 36.6823 30.0772 36.7309 30.1384L42.6002 36.7384C42.7475 36.9003 42.9522 36.9981 43.1707 37.0111C43.3892 37.024 43.604 36.951 43.7694 36.8077C45.4238 35.7355 47.0043 34.5533 48.5002 33.2692C48.8079 33.0077 49.1079 32.7384 49.4079 32.5C50.0617 33.5538 50.7617 34.5769 51.4617 35.5769C54.054 39.3231 56.8463 43.4692 59.4925 47.1692C59.5658 47.287 59.6667 47.3852 59.7866 47.4552C59.9064 47.5252 60.0415 47.565 60.1801 47.5711C60.3187 47.5771 60.4568 47.5493 60.5822 47.49C60.7077 47.4307 60.8168 47.3417 60.9002 47.2307L66.7694 39.5C66.8147 39.4105 66.8285 39.3085 66.8087 39.2102C66.7888 39.1119 66.7365 39.0232 66.6601 38.9584C66.5836 38.8935 66.4876 38.8562 66.3874 38.8526C66.2872 38.849 66.1888 38.8792 66.1079 38.9384Z" fill="#183319"/>
<path d="M11.9075 55.4308L36.1536 31.3462C37.2178 32.6487 38.3528 33.8916 39.5536 35.0693C40.6382 36.0693 43.6075 38.1077 43.6075 38.1077L46.6844 36.8077C46.6844 36.8077 43.2844 39.4385 42.8998 39.4385C42.5152 39.4385 39.269 36.4847 37.6305 35.5154C35.9921 34.5462 35.9229 33.8462 34.6152 35.2616C32.8152 37.1923 31.2844 41.1616 29.7998 42.8462C26.1536 46.9231 11.9075 55.4308 11.9075 55.4308Z" fill="#9CB985"/>
<path d="M41.1078 29.0384C40.0155 28.5846 58.0848 8.82305 60.2848 8.2692C60.6848 8.16151 61.054 10.3615 60.8002 10.7461C57.9078 14.5307 54.6463 16.9 52.6309 18.6615C50.6155 20.4231 45.0617 26.5769 44.1694 27.5461C43.2771 28.5154 41.9771 29.3923 41.1078 29.0384Z" fill="#9CB985"/>
<path d="M69.5464 0.130801C69.6664 0.743575 69.7103 1.36881 69.6771 1.99234C69.6771 3.84618 69.5771 5.70773 69.6233 7.56157C70.0233 22.7077 69.9695 40.7231 70.231 55.8616C70.231 56.7693 70.231 57.7385 70.1464 58.6462C70.1631 58.8458 70.1133 59.0453 70.0048 59.2137C69.8962 59.382 69.7351 59.5098 69.5464 59.577C69.4874 59.6093 69.4213 59.6262 69.3541 59.6262C69.2869 59.6262 69.2207 59.6093 69.1618 59.577C68.5848 59.2693 68.5541 58.9616 68.5618 58.6462L68.5156 57.7231C68.4079 53.3846 68.6387 49.0539 68.6156 44.7154C68.7156 33.8847 68.7848 18.3308 69.0772 7.56157C69.131 5.70773 69.031 3.84618 69.0233 1.99234C68.9889 1.36845 69.0355 0.742737 69.1618 0.130801C69.1618 3.15607e-05 69.3079 -0.0691969 69.4156 -0.023043C69.4473 -0.00852658 69.4755 0.0127715 69.4981 0.0393537C69.5207 0.0659359 69.5372 0.0971525 69.5464 0.130801Z" fill="#644426"/>
</g>
<defs>
<clipPath id="clip0_2657_5503">
<rect width="203.846" height="60" fill="white"/>
</clipPath>
</defs>
</svg>
